<?xml version="1.0" encoding="UTF-8" standalone="no"?>
<!DOCTYPE svg PUBLIC "-//W3C//DTD SVG 1.1//EN" "http://www.w3.org/Graphics/SVG/1.1/DTD/svg11.dtd">
<svg width="100%" height="100%" viewBox="0 0 250 250" version="1.1" xmlns="http://www.w3.org/2000/svg" xmlns:xlink="http://www.w3.org/1999/xlink" xml:space="preserve" xmlns:serif="http://www.serif.com/" style="fill-rule:evenodd;clip-rule:evenodd;stroke-linejoin:round;stroke-miterlimit:2;">
    <path d="M166.21,66.9C166.21,66.9 121.36,71.61 102.77,95.42C90.15,111.57 90.09,132.86 102.15,144.42C104.657,140.973 107.397,137.33 110.37,133.49C111.82,131.62 113.27,129.78 114.69,128L113.47,105.84C113.587,104.283 114.9,103.064 116.462,103.064C117.899,103.064 119.144,104.097 119.41,105.51L120.26,121.1C128.49,111.1 134.89,103.88 134.97,103.78C135.525,103.265 136.254,102.979 137.011,102.979C138.657,102.979 140.011,104.333 140.011,105.979C140.011,106.628 139.8,107.261 139.41,107.78C139.3,107.9 128.89,119.61 117.58,133.96L133.58,129.68C133.699,129.666 133.818,129.659 133.937,129.659C135.583,129.659 136.937,131.013 136.937,132.659C136.937,133.86 136.216,134.95 135.11,135.42L113.75,141.13C113.499,141.198 113.24,141.232 112.98,141.23C112.66,141.232 112.342,141.178 112.04,141.07C110.32,143.35 108.57,145.7 106.84,148.07C120.97,156.66 141.36,151.39 153.84,135.37C172.49,111.55 166.21,66.9 166.21,66.9Z" style="fill:rgb(237,236,230);fill-rule:nonzero;"/>
    <path d="M102.15,144.42C90.52,160.47 84,172.29 82.81,179.65C82.564,181.254 83.662,182.781 85.26,183.06C85.423,183.075 85.587,183.075 85.75,183.06C87.194,183.047 88.435,181.993 88.68,180.57C89.91,173.03 98.11,160.1 106.87,148.01C105.957,147.461 105.079,146.856 104.24,146.2C103.51,145.646 102.813,145.052 102.15,144.42Z" style="fill:rgb(237,236,230);fill-rule:nonzero;"/>
</svg>
