<?xml version="1.0" encoding="utf-8"?>
<!-- Generator: Adobe Illustrator 22.0.0, SVG Export Plug-In . SVG Version: 6.00 Build 0)  -->
<svg version="1.1" id="Layer_1" xmlns="http://www.w3.org/2000/svg" xmlns:xlink="http://www.w3.org/1999/xlink" x="0px" y="0px"
	 viewBox="0 0 245.78 61.94" style="enable-background:new 0 0 245.78 61.94;" xml:space="preserve">
<style type="text/css">
	.st0{fill:#22535b;}
</style>
<g>
	<g>
		<g>
			<path class="st0" d="M68.058,61.99h-8.133L12.113,18.33v43.651c0,0-5.702,0-7.973,0c-2.27,0-4.127-1.685-4.127-3.744
				c0-2.061,0-14.298,0-27.194v-0.217c0-12.896,0-25.089,0-27.095s1.881-3.648,4.18-3.648c2.298,0,4.074-0.034,4.074-0.034
				L55.894,43.17c0.036,0.041,0-43.122,0-43.122h12.165L68.058,61.99z"/>
		</g>
	</g>
	<g>
		<path class="st0" d="M242.429,28.052c-2.265-2.265-6.14-3.339-11.864-3.339h-35.412V11.478h48.975v-3.16l0.119-4.829V0.3h-45.785
			c-5.842,0-9.747,1.133-11.983,3.398c-2.206,2.295-3.279,6.23-3.279,12.102v5.097c0,5.842,1.073,9.807,3.279,12.072
			c2.236,2.295,6.141,3.398,11.983,3.398h35.293v14.517H189.55L161.321,0.062h-12.37l-27.662,50.704l-34.399,0.03v-15.53h28.556
			V24.266H86.89V11.18h46.769V0.062c0,0-53.357,0-55.622,0c-2.265,0-4.114,1.58-4.114,3.517v54.877c0,1.938,1.848,3.517,4.114,3.517
			h152.469c5.813,0,9.747-0.864,11.983-3.13c2.206-2.265,3.279-6.2,3.279-12.102v-6.617
			C245.768,34.252,244.665,30.317,242.429,28.052z M134.375,50.736l20.538-38.959l20.448,38.959H134.375z"/>
	</g>
</g>
</svg>
