<?xml version="1.0" encoding="UTF-8" standalone="no"?>
<!DOCTYPE svg PUBLIC "-//W3C//DTD SVG 1.1//EN" "http://www.w3.org/Graphics/SVG/1.1/DTD/svg11.dtd">
<svg width="100%" height="100%" viewBox="0 0 250 250" version="1.1" xmlns="http://www.w3.org/2000/svg" xmlns:xlink="http://www.w3.org/1999/xlink" xml:space="preserve" xmlns:serif="http://www.serif.com/" style="fill-rule:evenodd;clip-rule:evenodd;stroke-linejoin:round;stroke-miterlimit:2;">
    <path d="M74.94,109.73C74.903,109.731 74.866,109.731 74.828,109.731C72.085,109.731 69.828,107.474 69.828,104.731C69.828,103.307 70.437,101.948 71.5,101C101.452,73.025 148.548,73.025 178.5,101C179.521,101.953 180.101,103.289 180.101,104.685C180.101,107.45 177.825,109.726 175.06,109.726C173.783,109.726 172.553,109.241 171.62,108.37C145.518,83.997 104.482,83.997 78.38,108.37C77.45,109.246 76.218,109.733 74.94,109.73Z" style="fill:rgb(237,236,230);fill-rule:nonzero;"/>
    <path d="M159.83,127.11C158.529,127.115 157.277,126.613 156.34,125.71C138.941,108.982 111.059,108.982 93.66,125.71C92.72,126.614 91.465,127.12 90.16,127.12C87.39,127.12 85.11,124.84 85.11,122.07C85.11,120.697 85.67,119.382 86.66,118.43C107.939,97.969 142.041,97.969 163.32,118.43C164.35,119.376 164.937,120.713 164.937,122.111C164.937,124.854 162.679,127.111 159.937,127.111C159.898,127.111 159.859,127.111 159.82,127.11L159.83,127.11Z" style="fill:rgb(237,236,230);fill-rule:nonzero;"/>
    <path d="M105.42,144.52C105.383,144.521 105.347,144.521 105.31,144.521C102.567,144.521 100.31,142.264 100.31,139.521C100.31,138.193 100.839,136.918 101.78,135.98C107.849,129.663 116.24,126.089 125,126.089C133.76,126.089 142.151,129.663 148.22,135.98C149.125,136.92 149.631,138.175 149.631,139.48C149.631,142.248 147.353,144.526 144.585,144.526C143.214,144.526 141.901,143.967 140.95,142.98C136.782,138.639 131.018,136.182 125,136.182C118.982,136.182 113.218,138.639 109.05,142.98C108.102,143.968 106.789,144.526 105.42,144.52Z" style="fill:rgb(237,236,230);fill-rule:nonzero;"/>
    <circle cx="125" cy="160.13" r="9.97" style="fill:rgb(237,236,230);"/>
</svg>
