<?xml version="1.0" encoding="UTF-8" standalone="no"?>
<!DOCTYPE svg PUBLIC "-//W3C//DTD SVG 1.1//EN" "http://www.w3.org/Graphics/SVG/1.1/DTD/svg11.dtd">
<svg width="100%" height="100%" viewBox="0 0 250 250" version="1.1" xmlns="http://www.w3.org/2000/svg" xmlns:xlink="http://www.w3.org/1999/xlink" xml:space="preserve" xmlns:serif="http://www.serif.com/" style="fill-rule:evenodd;clip-rule:evenodd;stroke-linejoin:round;stroke-miterlimit:2;">
    <path d="M125,154.5C122.882,154.5 121.14,156.242 121.14,158.36L121.14,242.58C122.42,242.58 123.7,242.67 125,242.67C126.3,242.67 127.58,242.67 128.86,242.58L128.86,158.36C128.86,156.242 127.118,154.5 125,154.5Z" style="fill:rgb(237,236,230);fill-rule:nonzero;"/>
    <path d="M115.54,112.35C113.417,112.35 111.67,110.603 111.67,108.48L111.67,87C111.667,86.934 111.665,86.869 111.665,86.803C111.665,84.68 113.412,82.933 115.535,82.933C117.658,82.933 119.405,84.68 119.405,86.803C119.405,86.869 119.403,86.934 119.4,87L119.4,108.45C119.4,108.463 119.4,108.477 119.4,108.49C119.4,110.608 117.658,112.35 115.54,112.35C115.54,112.35 115.54,112.35 115.54,112.35Z" style="fill:rgb(237,236,230);fill-rule:nonzero;"/>
    <path d="M134.46,112.35L134.46,112.35C132.342,112.35 130.6,110.608 130.6,108.49C130.6,108.487 130.6,108.483 130.6,108.48L130.6,87C130.597,86.934 130.595,86.869 130.595,86.803C130.595,84.68 132.342,82.933 134.465,82.933C136.588,82.933 138.335,84.68 138.335,86.803C138.335,86.869 138.333,86.934 138.33,87L138.33,108.45C138.33,108.46 138.33,108.47 138.33,108.48C138.33,110.603 136.583,112.35 134.46,112.35Z" style="fill:rgb(237,236,230);fill-rule:nonzero;"/>
    <path d="M101.33,129.79C101.33,145.57 111.93,158.36 125,158.36C138.07,158.36 148.67,145.57 148.67,129.79L148.67,109.06L101.33,109.06L101.33,129.79Z" style="fill:rgb(237,236,230);fill-rule:nonzero;"/>
</svg>
