<?xml version="1.0" encoding="UTF-8"?><svg id="Layer_1" xmlns="http://www.w3.org/2000/svg" viewBox="0 0 3522.03 1759.7"><defs><style>.cls-1{fill:#95c672;}.cls-2{fill:#fefdf2;}.cls-3{fill:#cfe4be;}.cls-4{fill:#003d2d;}</style></defs><path class="cls-1" d="M1206.47,954.29h2171.03s6.36,282.97,6.36,355.75v26.35c0,145.55-117.97,263.52-263.52,263.52h-1696.56c-174.54,0-340.02-77.52-451.75-211.6l-56.52-67.81c-75.1-90.12-186.35-142.21-303.66-142.21h-249.68c-123.72,0-223.99-100.27-223.99-223.99h1068.29Z"/><g id="Layer_18"><path class="cls-3" d="M3173.03,993.55c3.31,7.3-2.03,15.57-10.05,15.57H906.44c-11.33,0-17.39-13.24-9.95-21.81l166.22-191.98,471.31-544.38c105.67-121.55,294.36-121.55,400.03,0l176.82,203.44c33.47,38.47,82.02,60.61,133.08,60.61h448.32c174.26,0,330.99,105.74,396.27,267.28l60.22,149.07c1.42,3.51,2.51,7.13,3.41,10.81,2.43,9.92,13.38,34.9,20.84,51.38Z"/></g><g id="boat"><path class="cls-3" d="M2808.56,1266.06h0c-20.23-17-45.85-26.35-72.34-26.35h-156.27c-31.56,0-61.73-13.11-83.21-36.23h0c-21.54-23.12-51.65-36.23-83.21-36.23h-1041.78c-18.58,0-29.91,20.49-20.03,36.23h0c9.88,15.75-1.38,36.23-20.03,36.23h-4.08c-18.18,0-32.94,14.76-32.94,32.94h0c0,18.18,14.76,32.94,32.94,32.94h1161.22c27.74,0,54.35,10.61,74.51,29.65h0c20.16,19.04,46.78,29.65,74.51,29.65h342.58c20.03,0,36.23-16.21,36.23-36.23h0c0-20.03-16.21-36.23-36.23-36.23h-99.55c-26.48,0-52.05-9.36-72.34-26.35h0Z"/><polygon class="cls-3" points="2603.67 1009.12 2603.67 1101.36 2524.61 1167.24 1430.99 1140.88 1358.52 1101.36 1358.52 1009.12 1426.77 989.36 2545.3 989.36 2603.67 1009.12"/><path class="cls-4" d="M1529.81,1272.65h1047.51c14.56,0,26.35-11.79,26.35-26.35v-144.94h-1245.15c0,94.61,76.69,171.29,171.29,171.29Z"/><path class="cls-2" d="M2603.67,1009.12v-13.18c0-21.81-17.72-39.53-39.53-39.53h-34.19c-7.44,0-14.3-4.22-17.66-10.87l-71.15-141.51c-13.44-26.68-40.78-43.55-70.62-43.55h-455.11c-10.01,0-19.11-5.67-23.59-14.56l-72.54-145.07h-330.72l64.69,143.03c4.74,10.54,4.68,22.66-.26,33.14l-77.28,164.31c-4.35,9.22-13.64,15.15-23.85,15.15h-54.94c-21.81,0-39.53,17.72-39.53,39.53v13.18h1246.27v-.07Z"/><path class="cls-1" d="M1788.92,409.6l-.26-.53c-6.92-11.99-19.57-19.3-33.34-19.3h-80.57v98.82h51.52c14.63,0,27.74,9.22,32.54,23.06h0c4.88,13.84,17.92,23.06,32.54,23.06h41.44c7.25,0,13.18-5.93,13.18-13.18v-79.06c0-7.25-5.86-13.18-13.18-13.18h-9.62c-14.16,0-27.21-7.51-34.26-19.76v.07Z"/><path class="cls-2" d="M1844.98,623.59h0l-382.11-.13c-12.58,0-22.79-10.21-22.79-22.79s10.21-22.79,22.79-22.79h0l382.11.13c12.58,0,22.79,10.21,22.79,22.79s-10.21,22.79-22.79,22.79Z"/><path class="cls-2" d="M1674.75,613.97c-7.25,0-13.18-5.93-13.18-13.18v-210.95c0-7.25,5.93-13.18,13.18-13.18s13.18,5.93,13.18,13.18v210.95c0,7.25-5.93,13.18-13.18,13.18Z"/><rect class="cls-1" x="1687.92" y="640.19" width="79.06" height="92.23" rx="19.76" ry="19.76"/><rect class="cls-4" x="1628.63" y="831.24" width="125.17" height="92.23" rx="19.76" ry="19.76"/><rect class="cls-4" x="1786.75" y="831.24" width="125.17" height="92.23" rx="19.76" ry="19.76"/><rect class="cls-4" x="1944.86" y="831.24" width="125.17" height="92.23" rx="19.76" ry="19.76"/><rect class="cls-4" x="2102.97" y="831.24" width="125.17" height="92.23" rx="19.76" ry="19.76"/><path class="cls-1" d="M1654.98,659.95v52.7c0,10.94-8.83,19.76-19.76,19.76h-34.32c-7.51,0-14.36-4.22-17.66-10.94l-26.35-52.7c-6.59-13.11,2.96-28.59,17.66-28.59h60.68c10.94,0,19.76,8.83,19.76,19.76Z"/></g></svg>