<?xml version="1.0" encoding="UTF-8"?><svg id="Layer_1" xmlns="http://www.w3.org/2000/svg" viewBox="0 0 384.65 430.75"><defs><style>.cls-1{fill:#104233;}</style></defs><path class="cls-1" d="M228.28,430.75h-71.91v-49.47C67.45,364.39,0,286.08,0,192.32,0,86.27,86.28,0,192.33,0v71.91c-66.4,0-120.42,54.02-120.42,120.41,0,53.88,35.57,99.61,84.47,114.94l.06-118.68c1.98-61.21,52.39-110.4,114.08-110.4s114.14,51.2,114.14,114.14c0,93.76-67.44,172.07-156.37,188.96v49.47ZM228.28,192.32v114.94c48.89-15.33,84.46-61.06,84.46-114.94,0-23.28-18.95-42.23-42.23-42.23s-42.23,18.95-42.23,42.23Z"/></svg>