<?xml version="1.0" encoding="UTF-8"?><svg id="bg_right" xmlns="http://www.w3.org/2000/svg" viewBox="0 0 1920 1080"><defs><style>.cls-1{stroke-width:15px;}.cls-1,.cls-2,.cls-3,.cls-4,.cls-5,.cls-6,.cls-7,.cls-8,.cls-9,.cls-10,.cls-11,.cls-12,.cls-13,.cls-14,.cls-15,.cls-16,.cls-17,.cls-18,.cls-19,.cls-20,.cls-21,.cls-22,.cls-23,.cls-24,.cls-25,.cls-26,.cls-27,.cls-28{stroke-linecap:round;}.cls-1,.cls-2,.cls-3,.cls-4,.cls-5,.cls-6,.cls-7,.cls-8,.cls-9,.cls-10,.cls-11,.cls-12,.cls-13,.cls-14,.cls-29,.cls-16,.cls-17,.cls-18,.cls-30,.cls-22,.cls-25,.cls-26,.cls-27,.cls-31,.cls-28{fill:none;}.cls-1,.cls-2,.cls-3,.cls-5,.cls-11,.cls-12,.cls-14,.cls-29,.cls-32,.cls-16,.cls-17,.cls-18,.cls-30,.cls-21,.cls-22,.cls-24,.cls-25,.cls-26,.cls-31,.cls-28{stroke-miterlimit:10;}.cls-1,.cls-2,.cls-3,.cls-23{stroke:#fefdf3;}.cls-2,.cls-4,.cls-15,.cls-32,.cls-18,.cls-19,.cls-24{stroke-width:12px;}.cls-3,.cls-29,.cls-30{stroke-width:6px;}.cls-4,.cls-5,.cls-6,.cls-7,.cls-8,.cls-9,.cls-10,.cls-11,.cls-12,.cls-13,.cls-14,.cls-19,.cls-20,.cls-30,.cls-31,.cls-28{stroke:#95c672;}.cls-4,.cls-6,.cls-7,.cls-8,.cls-9,.cls-10,.cls-13,.cls-15,.cls-19,.cls-20,.cls-23,.cls-27{stroke-linejoin:round;}.cls-5,.cls-9{stroke-width:14px;}.cls-6,.cls-20,.cls-23{stroke-width:10px;}.cls-7{stroke-width:11px;}.cls-8{stroke-width:16px;}.cls-10{stroke-width:18px;}.cls-11,.cls-17{stroke-width:8px;}.cls-12,.cls-13,.cls-16,.cls-22,.cls-27{stroke-width:4px;}.cls-14,.cls-25{stroke-width:5px;}.cls-15,.cls-33{fill:#cee3bd;}.cls-15,.cls-16,.cls-17,.cls-18{stroke:#cee3bd;}.cls-29{stroke:#f1e967;}.cls-32,.cls-21,.cls-22,.cls-24,.cls-25,.cls-26,.cls-27{stroke:#003d2d;}.cls-32,.cls-21,.cls-24,.cls-34{fill:#003d2d;}.cls-19,.cls-20,.cls-35{fill:#95c672;}.cls-21{stroke-width:38px;}.cls-23,.cls-36{fill:#fefdf3;}.cls-26{stroke-width:3px;}.cls-31{stroke-width:7px;}.cls-28{stroke-width:2px;}</style></defs><path class="cls-36" d="M519.18,442.05v-61c0-4.42-3.58-8-8-8h-50.05c-7.47,0-10.86-9.33-5.14-14.13l177.96-149.32c-19.18-17.05-48.53-17.82-68.57-1.26-9.53,7.88-15.55,18.33-17.96,29.44-3.55,16.34-18.39,27.64-35.08,26.54-34.4-2.26-69.55,9.75-95.84,36.04-18.43,18.43-29.85,41.23-34.25,65.07-4.45,24.11-24.37,42.01-48.66,45.35-15.03,2.07-29.62,8.59-41.64,19.69-30.29,27.94-33.06,75.45-6.22,106.71,28.27,32.92,77.92,35.96,109.98,7.08,5.05-4.55,9.36-9.62,12.92-15.05,13.1-19.99,37.78-28.82,60.73-22.13,16.2,4.72,35.82-42.03,49.82-65.03Z"/><path class="cls-36" d="M161.18,493.55c-35.05,0-67.38,11.89-93.17,31.85-2.68,2.07-3.06,5.98-.88,8.57l9.03,10.77c2.38,2.84,6.58,3.35,9.53,1.12,21.02-15.88,47.17-25.3,75.48-25.3,30.67,0,58.81,11.06,80.63,29.41l17.35-20.68c-26.52-22.29-60.71-35.73-97.98-35.73Z"/><path class="cls-36" d="M161.18,541.55c-23.26,0-44.77,7.64-62.15,20.54-2.77,2.06-3.24,6.03-1.02,8.68l8.47,10.1c2.65,3.16,7.27,3.8,10.65,1.45,12.51-8.69,27.7-13.77,44.05-13.77,18.94,0,36.32,6.83,49.79,18.17l17.35-20.69c-18.17-15.27-41.6-24.48-67.14-24.48Z"/><path class="cls-36" d="M197.48,602.79l-28.64,34.13c-4,4.76-11.32,4.76-15.32,0l-24.55-29.26c-2.31-2.75-1.7-6.91,1.3-8.88,8.89-5.83,19.51-9.23,30.91-9.23,13.81,0,26.48,4.98,36.3,13.24Z"/><path class="cls-35" d="M212.46,709.96c29.89-44.31,75.77-74.46,127.12-84.87.93-.19,1.6-1,1.6-1.95v-13.88c0-1.42.51-2.8,1.43-3.89l15.57-18.32,63,20v12c0,1.1.9,2,2,2h14c1.1,0,2-.9,2-2v-15.54c0-10.25,8.33-19.68,18.55-20.41,2.36-.17,4.63.08,6.76.67,2.07.57,4.27-.58,4.92-2.63,3.44-10.77,13.7-18.49,25.71-18.07,9.75.34,18.01,6.19,22.17,14.43.48.95,1.89.63,1.89-.43v-135.02c-7.31,0-14.27,3.16-19.08,8.66l-5.62,6.42c-9.4,10.75-22.99,16.92-37.28,16.92h-105.18c-46.23,0-89.45,22.98-115.3,61.31l-65.87,97.66c-20.49,30.37-53.62,49.85-90.12,52.97l-13.74,1.17c-19.12,1.63-33.8,17.63-33.8,36.82v5.07c0,1.66,1.34,3,3,3h161.38l14.9-22.09Z"/><path class="cls-33" d="M175.88,753.05H39.96c-3.56,0-6.66,2.74-6.77,6.3s2.84,6.7,6.5,6.7h41.32c5.83,0,11.3,2.79,14.73,7.5h0c3.43,4.71,8.9,7.5,14.73,7.5h48.74c3.32,0,6.43-1.65,8.29-4.41l11.71-17.36c1.79-2.66-.11-6.24-3.32-6.24Z"/><rect class="cls-33" x="117.18" y="795.05" width="32" height="13" rx="6.5" ry="6.5"/><path class="cls-33" d="M421.18,607.05h-43.23c-1.76,0-3.43-.77-4.57-2.11l-15.2-17.89h43.23c1.76,0,3.43.77,4.57,2.11l15.2,17.89Z"/><line class="cls-17" x1="367.18" y1="823.05" x2="367.18" y2="730.05"/><line class="cls-17" x1="483.18" y1="749.05" x2="483.18" y2="661.05"/><path class="cls-35" d="M463.18,753.05v26c0,3.31-2.69,6-6,6h-44c-3.31,0-6,2.69-6,6v26c0,3.31-2.69,6-6,6h-44c-3.31,0-6,2.69-6,6v29c0,1.66,1.34,3,3,3h159c3.31,0,6-2.69,6-6v-102c0-3.31-2.69-6-6-6h-44c-3.31,0-6,2.69-6,6Z"/><path class="cls-17" d="M342.18,746.55l118.83-80.6c6.63-4.49,14.45-6.9,22.45-6.9h31.71"/><path class="cls-35" d="M904.49,179.65l-155.76,130.69-11.95,10.03c-3.6,3.02-8.15,4.68-12.86,4.68h-96.23c-5.6,0-8.15-7-3.86-10.6l77.87-65.34,88.72-74.45c4.33-3.62,9.79-5.61,15.43-5.61h94.78c5.6,0,8.15,7,3.86,10.6Z"/><path class="cls-36" d="M748.73,310.34l-11.95,10.03c-3.6,3.02-8.15,4.68-12.86,4.68h-96.23c-5.6,0-8.15-7-3.86-10.6l15.97-13.4,61.9-51.94c25.35,9.86,43.96,33.2,47.03,61.23Z"/><path class="cls-33" d="M900.63,169.05h-24.93l-155.08,130.13c-1.44,1.21-3.26,1.87-5.14,1.87h-75.68l-15.97,13.4c-4.29,3.6-1.75,10.6,3.86,10.6h96.23c4.71,0,9.26-1.66,12.86-4.68l167.71-140.72c4.29-3.6,1.74-10.6-3.86-10.6Z"/><path class="cls-35" d="M822.18,334.05l-133.39-.19c-6.68,0-10.81,7.28-7.36,13l2.64,4.38c2.69,4.46,4.11,9.56,4.11,14.76v91.05h135v-99l-1-24Z"/><path class="cls-21" d="M805.68,427.05h-75.82c-13.5,0-21.38-15.24-13.57-26.26l35.99-50.77c18.64-26.29,47.95-43,80.07-45.63l10.33-.85,30.73,12.47c12.69,5.15,22.92,14.99,28.55,27.48l37.72,83.55h-134Z"/><path class="cls-36" d="M809.31,218.55l-23.69,41.02c-4.62,8,1.15,18,10.39,18h99.33c9.24,0,15.01-10,10.39-18l-23.69-41.02c-16.17-28-56.58-28-72.75,0Z"/><rect class="cls-35" x="825.68" y="241.55" width="34" height="71"/><path class="cls-35" d="M871.18,403.05s-17-38-38.29-68.5c-3.7-8.98-7.61-17.6-11.69-25.59-4.64-9.1-1.03-20.24,8.07-24.89,9.1-4.64,20.24-1.03,24.89,8.07,6.72,13.16,12.93,27.59,18.49,42.41,2.53,33.5-1.47,68.5-1.47,68.5Z"/><path class="cls-33" d="M865.28,454.44c-3.07-29.89-15.42-78.64-32.39-119.89h39.76c15.77,41.95,26.46,87.13,29.43,116.11,1.05,10.17-35.83,13.3-36.8,3.78Z"/><circle class="cls-35" cx="825.18" cy="247.05" r="11"/><path class="cls-35" d="M859.6,280.05h-14.42l-20-44,5.75-.02c6.01-.02,11.22-4.17,12.57-10.03h0c.4-1.73,1.94-2.95,3.71-2.95h21.2c2.42,0,4.74.96,6.45,2.67h0c6.34,6.34,8.62,15.7,5.9,24.25l-6.06,19.04c-2.09,6.57-8.2,11.04-15.09,11.04Z"/><path class="cls-34" d="M857.18,263.55h0c-3.7,0-7.09-2.03-8.84-5.28l-2.57-4.77c-.72-1.33.25-2.95,1.76-2.95h19.3c1.51,0,2.48,1.62,1.76,2.95l-2.57,4.77c-1.75,3.25-5.15,5.28-8.84,5.28Z"/><path class="cls-36" d="M863.84,256l.52-.97c.36-.67-.12-1.47-.88-1.47h-12.61c-.76,0-1.24.81-.88,1.47l.52.97c.35.65,1.03,1.05,1.76,1.05h9.8c.74,0,1.41-.4,1.76-1.05Z"/><path class="cls-34" d="M822.73,242.57c-2.17.22-3.87,1.98-4.02,4.18-.02.1-.03.2-.03.3v12.5c0,.83.67,1.5,1.5,1.5s1.5-.67,1.5-1.5v-6.61c0-.81.68-1.39,1.48-1.39,0,0,.01,0,.02,0,2.49,0,4.5-2.01,4.5-4.5s-2.38-4.73-4.95-4.48Z"/><line class="cls-10" x1="1003.18" y1="342.05" x2="987.18" y2="334.05"/><path class="cls-36" d="M1031.29,338.05h-98.67c-7.15,0-13.75,3.81-17.32,10l-49.65,86c-1.07,1.86-3.05,3-5.2,3h-80.09c-2.09,0-3.95,1.53-4.15,3.61-.23,2.39,1.64,4.39,3.98,4.39l79.11,10h108.89l16.34-10c3.57,0,6.87-1.91,8.66-5l48.5-84c4.62-8-1.15-18-10.39-18Z"/><rect class="cls-33" x="611.18" y="445.05" width="492" height="20" rx="6" ry="6"/><rect class="cls-35" x="627.18" y="391.05" width="48" height="54" rx="6" ry="6"/><path class="cls-31" d="M620.68,403.05h19.5v19h-19.5c-5.24,0-9.5-4.26-9.5-9.5h0c0-5.24,4.26-9.5,9.5-9.5Z"/><line class="cls-3" x1="659.18" y1="403.05" x2="659.18" y2="427.05"/><path class="cls-8" d="M990.18,347.05l22.21-23.01c2.47-2.56,6.79-1.32,7.53,2.15h0c.82,3.81,2.78,7.28,5.63,9.94l6.94,6.47c2.34,2.19,3.63,5.28,3.54,8.48l-.86,30.27"/><line class="cls-10" x1="1004.68" y1="361.54" x2="1019.18" y2="335.05"/><line class="cls-10" x1="1017.68" y1="373.54" x2="1025.18" y2="348.05"/><path class="cls-35" d="M1033.96,219.05c-7.99.03-15.03,1.49-21.09,4.37-1.98.94-3.81-1.43-2.39-3.1,2.44-2.86,5.27-5.17,8.51-6.97,2.79-1.55,3.99-5.09,2.57-7.96-1.53-3.08-5.29-4.24-8.27-2.6-4.01,2.2-7.56,4.99-10.65,8.34-1.23,1.34-3.46.46-3.46-1.36v-13.47c0-3.29-2.53-6.15-5.81-6.25-3.4-.1-6.19,2.62-6.19,6v13.71c0,1.84-2.25,2.68-3.5,1.33-2.99-3.24-6.41-5.94-10.26-8.11-2.8-1.57-6.46-.95-8.23,1.73-1.97,2.97-.95,6.91,2.1,8.59,3.27,1.8,6.13,4.13,8.59,7.01,1.42,1.67-.41,4.04-2.39,3.1-6.06-2.88-13.09-4.34-21.09-4.37-3.07-.01-5.81,2.21-6.18,5.27-.43,3.64,2.4,6.73,5.96,6.73,12.23,0,29.17,3.44,35.12,33.18,0,0,0,0,0,0,.04.2.09.4.15.6.04.12.08.24.13.35.01.04.03.08.04.12,0,0,0,.01,0,.02,0,.02.01.03.02.05.06.15.14.3.21.45.01.02.02.05.04.07.04.07.08.14.12.21.03.05.06.11.1.16,0,0,0,0,0,0,.03.04.05.09.08.13.06.1.14.19.21.28.05.06.09.13.14.19.03.03.06.06.09.1.04.04.08.08.11.13.06.07.12.14.19.21.04.04.08.07.12.11.1.1.2.19.31.28,0,0,.02.01.03.02.02.01.03.02.05.04.13.1.25.2.39.29.03.02.06.03.09.05.09.06.19.12.29.18.02.01.04.02.05.03.02.01.04.03.07.04.24.13.5.24.76.34.05.02.09.04.14.05.25.09.51.16.78.22,0,0,0,0,0,0,.02,0,.05,0,.07.01,0,0,0,0,0,0,.05.01.11.02.16.02.11.02.22.04.34.05.19.02.38.03.57.03,0,0,.01,0,.02,0,0,0,0,0,0,0s0,0,0,0c0,0,.01,0,.02,0,.19,0,.38-.01.57-.03.11-.01.23-.03.34-.05.05,0,.11-.01.16-.02,0,0,0,0,0,0,.02,0,.05,0,.07-.01,0,0,0,0,0,0,.27-.05.53-.13.78-.22.05-.02.09-.03.14-.05.26-.1.52-.21.76-.34.02-.01.04-.03.07-.04.02-.01.04-.02.05-.03.1-.06.2-.12.3-.18.02-.02.05-.03.08-.05.13-.09.26-.19.39-.29.02-.01.03-.02.05-.04,0,0,.02-.01.03-.02.11-.09.21-.19.31-.28.04-.04.08-.07.12-.11.07-.07.13-.14.19-.21.04-.04.08-.08.11-.13.03-.03.06-.06.09-.1.05-.06.09-.13.14-.19.07-.09.14-.18.21-.28.03-.04.05-.09.08-.13,0,0,0,0,0,0,.03-.05.06-.1.1-.16.04-.07.09-.14.12-.21.01-.02.02-.05.04-.07.08-.15.15-.3.21-.45,0-.02.01-.03.02-.05,0,0,0-.01,0-.02.02-.04.03-.08.04-.12.04-.12.09-.23.13-.35.06-.19.11-.39.15-.6,0,0,0,0,0,0,5.95-29.74,22.89-33.18,35.12-33.18,3.56,0,6.39-3.09,5.96-6.73-.36-3.05-3.1-5.28-6.18-5.27Z"/><path class="cls-36" d="M1003.39,268.05h-20.41c-5.03,0-9.27-3.73-9.92-8.72l-2.58-20.02c-.15-1.2.78-2.26,1.98-2.26h41.45c1.21,0,2.14,1.06,1.98,2.26l-2.58,20.02c-.64,4.99-4.89,8.72-9.92,8.72Z"/><line class="cls-18" x1="954.18" y1="273.05" x2="1060.18" y2="273.05"/><path class="cls-9" d="M780.18,400.05c-7.8-16.42-11.88-30.9-13.31-44"/><line class="cls-9" x1="788.18" y1="392.98" x2="776.18" y2="346.05"/><path class="cls-9" d="M757.18,371.05c2.5,6.68,8.49,22.4,17.37,34.4,3.03,4.09,8.27,5.9,13.2,4.59l15.15-4.01c6.79-1.8,11.76-7.6,12.5-14.58l2.27-21.54-2.63,6.95c-2.53,6.69-11.89,6.97-14.81.44l-3.13-6.99c-1.95-4.37-3.5-8.9-4.62-13.55l-3.31-13.71"/><polygon class="cls-35" points="806.18 405.05 774.18 405.05 768.18 382.05 788.18 358.05 799.14 380.77 816.18 386.05 806.18 405.05"/><path class="cls-27" d="M794.18,393.05c-7.54,0-14.46-2.61-19.93-6.96"/><rect class="cls-33" x="1116.18" y="187.05" width="241" height="148" rx="6" ry="6"/><path class="cls-35" d="M1227.33,187.05l-111.15,93.26v-87.26c0-3.31,2.69-6,6-6h105.15Z"/><path class="cls-33" d="M1121.7,364.62l16.06,19.14c2.28,2.72,5.65,4.29,9.19,4.29h133.23v-30h-155.42c-3.4,0-5.25,3.97-3.06,6.57Z"/><rect class="cls-35" x="1259.28" y="252.56" width="29" height="28.47" transform="translate(659.38 -880.47) rotate(50)"/><path class="cls-35" d="M1282.18,208.05l-18.2,6.35c.32-1.13.26-2.37-.29-3.51-1.21-2.52-4.46-3.46-6.97-2.21l-19.6,9.8c-2.38,1.19-3.59,4.01-2.57,6.47.5,1.22,1.42,2.12,2.51,2.63.81.38,1.32,1.2,1.2,2.08l-.23,1.65c-.18,1.32.72,2.69,2.03,2.94,2.88.55,5.48,2.49,6.7,5.54,1.47,3.67.27,8-2.87,10.41-1.8,1.38-3.9,1.97-5.93,1.87-1.57-.07-2.94,1.01-3.16,2.57-.02.17-.05.34-.07.51-1.09,7.87,5.02,14.88,12.97,14.88,15.2,0,36.48,0,36.48,0l-2-62Z"/><path class="cls-34" d="M1304.09,239.28c-.69-.83-.58-2.07.25-2.75,2.69-2.18,3.99-5.8,3.02-9.36-.74-2.72-2.66-4.81-5.06-5.86-1.01-.44-1.54-1.5-1.31-2.57.56-2.57-.16-5.36-2.16-7.36-2.02-2.02-4.84-2.73-7.43-2.14-1.07.24-2.15-.47-2.28-1.55-.33-2.89-2.33-5.48-5.37-6.36-3.81-1.1-7.8,1.12-9.19,4.83l-4.34,11.57-8.59-13.88c-2.04-3.29-6.35-4.3-9.64-2.27-3.29,2.03-4.3,6.35-2.27,9.64l13,21c.88,1.42,2.19,2.41,3.66,2.92-1.19,1.37-1.99,3.11-2.17,5.06l-1.15,12.37c-.39,4.24,1.04,8.45,3.94,11.57,2.83,3.03,6.79,4.76,10.93,4.76.11,0,.22,0,.33,0l15.55-.35c4.95-.11,9.1-4.08,9.09-9.03,0-1.59-.42-3.08-1.14-4.37-.53-.95-.22-2.17.67-2.8,1.94-1.39,3.32-3.54,3.67-6.09.36-2.61-.45-5.11-2.01-6.98Z"/><path class="cls-35" d="M1224.79,383.36c-8.25,7.52-16.46,15.05-20.36,18.74l-2.51,7.53c-.68,2.04-2.58,3.42-4.73,3.42-10.38,0-20.08-4.09-27.33-11.51-7.25-7.43-11.1-17.23-10.84-27.6l1.66-67.63c.35-14.36,7.64-27.79,19.49-35.91l14.57-10c3.07-2.1,7.36-1.93,10.28.88,1.08,1.04,1.81,2.4,2.21,3.84l2.34,8.34c.11.4.63.59,1.09.59.95.01,1.91.1,2.78.49,6.46,2.88,7.06,10.26,2.9,14.42l-10.25,10.25c-2.5,2.5-3.91,5.9-3.91,9.44v17.65l29-11.25-6.39,68.31Z"/><path class="cls-34" d="M1353.72,329.59l-85,85c-.95.94-2.23,1.46-3.54,1.46-1.15,0-2.34-.4-3.33-1.26-.61-.54-1.06-1.24-1.36-2l-15.9-40.13c-1.03-2.59-4.33-3.37-6.4-1.49-3.94,3.57-8.68,7.88-13.4,12.19l-22.61-57.06,29.7-29.25c21.48-21.15,50.41-33,80.55-33h14.14c2.02,0,3.84,1.22,4.62,3.09l23.61,57c.77,1.86.35,4.02-1.08,5.45Z"/><path class="cls-36" d="M1266.18,204.05h6c1.66,0,3,1.34,3,3v22h-12v-22c0-1.66,1.34-3,3-3Z"/><circle class="cls-36" cx="1269.18" cy="238.05" r="15"/><path class="cls-26" d="M1278.18,238.05c0,4.96-4.04,9-9,9s-9-4.04-9-9"/><rect class="cls-33" x="1465.18" y="297.05" width="70" height="168" rx="12" ry="12"/><path class="cls-35" d="M1401.18,297.05h43c6.62,0,12,5.38,12,12v144c0,6.62-5.38,12-12,12h-43v-168h0Z"/><path class="cls-36" d="M1407.96,243.05h-5.4c-1.81,0-3.4-1.22-3.87-2.98l-1.47-5.57c-1.79-6.75-7.9-11.46-14.89-11.46h-22.55c-6.38,0-12.1,3.94-14.38,9.9l-2.88,7.53c-.59,1.55-2.08,2.57-3.74,2.57h-8.09c-10,0-19.02,6-22.89,15.23l-55.57,132.66c-2.72,6.49-10.54,9.09-16.6,5.52l-24.6-14.49c-9.99-5.89-22.67-4.51-31.16,3.39l-50.54,47.01c-12.55,11.67-4.29,32.68,12.85,32.68h260.01c14.36,0,26-11.64,26-26v-175.78c0-11.17-9.05-20.22-20.22-20.22Z"/><path class="cls-16" d="M1287.23,421.94l55.57-132.66c3.86-9.22,12.89-15.23,22.89-15.23h24.49"/><circle class="cls-36" cx="1500.18" cy="324.05" r="4"/><circle class="cls-36" cx="1512.18" cy="324.05" r="4"/><circle class="cls-36" cx="1488.18" cy="324.05" r="4"/><circle class="cls-36" cx="1500.18" cy="336.05" r="4"/><circle class="cls-36" cx="1512.18" cy="336.05" r="4"/><circle class="cls-36" cx="1488.18" cy="336.05" r="4"/><circle class="cls-36" cx="1500.18" cy="348.05" r="4"/><circle class="cls-36" cx="1512.18" cy="348.05" r="4"/><circle class="cls-36" cx="1488.18" cy="348.05" r="4"/><path class="cls-36" d="M634.22,786.89c-2.75-2.92-3.03-7.41-.5-10.53,2.85-3.5,4.47-7.53,4.47-11.82,0-11.07-10.79-20.42-25.61-23.46-1.39-.29-2.39-1.51-2.39-2.93v-60.81c0-1.13.56-2.18,1.5-2.8h0c.94-.62,1.5-1.68,1.5-2.8v-22.2c0-3.31-2.69-6-6-6h-10c-3.31,0-6,2.69-6,6v22.2c0,1.13.56,2.18,1.5,2.8h0c.94.62,1.5,1.68,1.5,2.8v60.81c0,1.42-1,2.65-2.39,2.93-14.81,3.04-25.61,12.38-25.61,23.46,0,4.29,1.62,8.32,4.47,11.82,2.52,3.1,2.26,7.59-.48,10.5-7.71,8.18-12.33,19.3-11.97,31.51.7,23.56,20.26,42.59,43.83,42.67,24.37.08,44.15-19.65,44.15-44,0-11.67-4.55-22.28-11.97-30.15Z"/><circle class="cls-34" cx="602.18" cy="776.05" r="13"/><line class="cls-14" x1="592.18" y1="814.55" x2="612.18" y2="814.55"/><path class="cls-35" d="M888.18,757.05v-10c0-14.36-11.64-26-26-26h-234c-14.36,0-26,11.64-26,26v108c0,3.31,2.69,6,6,6h336c3.31,0,6-2.69,6-6v-52c0-14.36-11.64-26-26-26h-16c-11.05,0-20-8.95-20-20Z"/><path class="cls-25" d="M723.68,831.05v-27.5c0-14.36-11.64-26-26-26h-16c-11.05,0-20-8.95-20-20v-10"/><line class="cls-25" x1="723.68" y1="803.55" x2="776.68" y2="803.55"/><path class="cls-34" d="M830.18,861.05h-42l-35.98-80.75c-5.95-13.35-9.02-27.8-9.02-42.42v-40.83h45l22.09,86.27,19.91,77.73Z"/><path class="cls-34" d="M837.18,697.05l36.85,121.31c5.55,18.26-8.12,36.69-27.2,36.69h-37.65l-39.35-158h67.35Z"/><path class="cls-12" d="M806.78,757.55c-5.65,0-10.58-3.85-11.94-9.33l-5.33-21.4"/><path class="cls-36" d="M808.86,798.05h-15.38c-7.88,0-14.27,6.39-14.27,14.27v21.27c0,2.74-.83,5.41-2.38,7.66l-11.32,16.48c-1.04,1.51-1.59,3.3-1.59,5.13h0c0,5.01,4.06,9.07,9.07,9.07h7.4c5.07,0,10-1.63,14.08-4.64h0c3.73-2.76,6.57-6.56,8.16-10.92,1.15-3.17,2.51-6.9,3.6-9.88,1.24-3.41,4.04-6.02,7.54-7.02l.21-.06c4.87-1.39,8.23-5.84,8.23-10.91v-17.11c0-7.36-5.97-13.33-13.33-13.33Z"/><path class="cls-36" d="M822.18,564.05c0,19.88-44.12,36-64,36v-36c0-19.88,16.12-36,36-36s28,16.12,28,36Z"/><path class="cls-35" d="M763.18,604.05l-40.35,32h-1.65c-11.05,0-20-8.95-20-20h0s17-16,17-16l45,4Z"/><path class="cls-2" d="M726.18,497.05l8.42,7.95c6.11,5.77,9.58,13.81,9.58,22.22v43.83c0,6.63,5.37,12,12,12h12"/><path class="cls-20" d="M677.18,570.05l-19.52,72.51c-3.93,14.61,8.71,28.33,23.6,25.6l76.93-14.11,9.7-36.08-71.46,15.31c-4.09.88-7.85-2.46-7.48-6.62l6.27-69.61,7.97-17-11,11c-11.08-5.68-23.75-9.34-38-11l23,30Z"/><path class="cls-6" d="M654.59,575.05c7.01-2.17,13.12-2.66,18.6-2"/><line class="cls-6" x1="653.59" y1="559.05" x2="683.98" y2="575.05"/><line class="cls-7" x1="651.59" y1="548.05" x2="680.98" y2="564.05"/><path class="cls-20" d="M821.23,606.54l136.87-29.53c5.62-1.21,10.15-5.35,11.86-10.84l1.27-4.08c1.08-3.44,3.87-6.07,7.37-6.94l20.58-5.1-5.33,1.64c-4.42,1.36-7.19,5.73-6.54,10.31l1.65,11.54c1.29,9.01-3.99,17.66-12.59,20.64l-146.19,50.64"/><path class="cls-23" d="M771.88,607.97l-51.7,11.13v48.94l13.41-4.69c5.5-1.92,11.02,2.86,9.89,8.58l-7.3,37.11h111.73c5.73,0,9.93-5.38,8.54-10.94l-9.23-36.91c-1.76-7.02,1.79-14.3,8.41-17.24l6.56-2.91-7.95-47.36-30.05,6.36-52.3,7.92Z"/><path class="cls-27" d="M912.43,609.55c-4.83,0-8.75-3.92-8.75-8.75"/><path class="cls-35" d="M834.68,553.05h0c-16.43-16.43-43.07-16.43-59.5,0l-29.18,29.18c-3.72,3.72-8.77,5.82-14.04,5.82h-3.06c-15.31,0-27.72,12.41-27.72,27.72v.28l31-9,5.24,5.29c26.76,27,70.37,27.1,97.26.22h0c16.43-16.43,16.43-43.07,0-59.5Z"/><path class="cls-36" d="M824.68,537.04c0-.89.39-1.73,1.08-2.3,3.97-3.25,6.42-7.74,6.42-12.7,0-3.98-1.58-7.66-4.26-10.64-.68-.76-.93-1.8-.69-2.8,1.02-4.18-.06-8.04-2.72-9.04-2.31-.87-5.15.66-7.17,3.58-.66.95-1.81,1.42-2.95,1.23-1.36-.22-2.77-.33-4.21-.33s-2.85.12-4.21.33c-1.14.18-2.29-.28-2.95-1.23-2.02-2.92-4.85-4.46-7.17-3.58-2.66,1.01-3.74,4.86-2.72,9.04.24,1,0,2.04-.69,2.8-2.68,2.98-4.26,6.66-4.26,10.64,0,.9.08,1.79.24,2.66.37,2.02-.98,3.92-2.97,4.41-3.27,8.92,12.73-9.95,12.73,6.92l26.5,1Z"/><line class="cls-1" x1="817.18" y1="530.05" x2="817.18" y2="583.05"/><line class="cls-1" x1="803.18" y1="530.55" x2="803.18" y2="583.55"/><line class="cls-26" x1="816.18" y1="518.05" x2="819.18" y2="517.05"/><line class="cls-26" x1="804.18" y1="518.05" x2="801.18" y2="517.05"/><line class="cls-28" x1="810.18" y1="543.05" x2="810.18" y2="575.05"/><rect class="cls-34" x="950.18" y="605.05" width="110" height="186" rx="13" ry="13" transform="translate(1703.23 -307.14) rotate(90)"/><rect class="cls-29" x="950.18" y="605.05" width="110" height="186" rx="13" ry="13" transform="translate(1703.23 -307.14) rotate(90)"/><path class="cls-36" d="M1087.84,752.78c-.86.18-1.75.27-2.66.27h-160c-7.17,0-13-5.83-13-13v-84c0-7.17,5.83-13,13-13h31.89l130.77,109.73Z"/><path class="cls-30" d="M1098.18,656.05v84c0,6.26-4.44,11.5-10.34,12.73-.86.18-1.75.27-2.66.27h-160c-7.17,0-13-5.83-13-13v-84c0-7.17,5.83-13,13-13h160c7.17,0,13,5.83,13,13Z"/><path class="cls-35" d="M1022.18,626.05h-34c-3.31,0-6,2.69-6,6v170c0,3.31,2.69,6,6,6h5c1.66,0,3,1.34,3,3v47.5c0,1.66,1.34,3,3,3h12c1.66,0,3-1.34,3-3v-47.5c0-1.66,1.34-3,3-3h5c3.31,0,6-2.69,6-6v-170c0-3.31-2.69-6-6-6Z"/><path class="cls-34" d="M1021.18,760.05h-10c-8.28,0-15,6.72-15,15s6.72,15,15,15h10v-30Z"/><circle class="cls-36" cx="1021.18" cy="775.05" r="15"/><circle class="cls-33" cx="1075.18" cy="698.05" r="9"/><path class="cls-19" d="M1377.18,737.05c13.5,0,13.5-10,27-10s13.5,10,27,10c13.5,0,13.5-10,27-10,13.5,0,13.5,10,27,10l-54-218-54,218Z"/><line class="cls-27" x1="1436.12" y1="557.04" x2="1440.9" y2="593.86"/><path class="cls-15" d="M1431.18,737.05c13.5,0,13.5-10,27-10s13.5,10,27,10c13.5,0,13.5-10,27-10,13.5,0,13.5,10,27,10l-54-218-54,218Z"/><line class="cls-13" x1="1492.69" y1="576.88" x2="1504.66" y2="669.05"/><path class="cls-33" d="M1334.18,771.05h-200c-9.94,0-18-8.06-18-18v-240c0-9.94,8.06-18,18-18h200v276Z"/><rect class="cls-36" x="1316.18" y="495.05" width="66" height="276" rx="18" ry="18"/><circle class="cls-36" cx="1216.18" cy="609.05" r="76"/><path class="cls-34" d="M1271.18,609.05c0,27.32-19.9,49.97-46,54.27-5-3.27-5.94-7.27-9-7.27-26.49,0-40-30-53.82-35.64-.78-3.67-1.18-7.47-1.18-11.36,0-30.38,24.62-55,55-55s55,24.62,55,55Z"/><rect class="cls-35" x="1192.18" y="594.05" width="14" height="12"/><path class="cls-4" d="M1364.82,646.96l-127.89-31.97c-4.85-1.21-8.81-4.72-10.59-9.4l-3.65-9.58c-.91-2.38-3.2-3.94-5.74-3.91l-5.2.06c-2.83.03-5.59-.87-7.86-2.57l-.11-.08c-2.62-1.97-6.32-1.43-8.26,1.18-3.77,5.09-9.34,12.37-9.34,12.37"/><path class="cls-33" d="M1225.18,607.05v56.27c-2.93.48-5.94.73-9,.73-26.49,0-48.59-18.71-53.82-43.64l20.72-16.23c5.71-4.47,13.23-5.88,20.16-3.78l21.94,6.65Z"/><circle class="cls-35" cx="1143.18" cy="514.55" r="8"/><circle class="cls-35" cx="1163.18" cy="514.55" r="5"/><polygon class="cls-34" points="1459.18 757.05 1459.18 840.05 1306.18 840.05 1355.18 700.05 1459.18 757.05"/><polygon class="cls-35" points="1375.18 650.05 1230.18 612.05 1220.18 593.05 1202.18 593.05 1212.18 625.05 1364.18 700.05 1375.18 650.05"/><path class="cls-4" d="M1349.18,690.05l-136.83-64.67c-6-2.84-12.65-4.01-19.26-3.41l-.9.08s3-4,19-4c-3.82-10.19-6.27-19.59-7-28"/><path class="cls-36" d="M1392.26,733.12l34.65,24.31-12.94,24.34-6.79,3.28,1.15,7.32-11.02,20.72c-.53,1.01-1.57,1.59-2.65,1.59-.47,0-.95-.11-1.4-.35-1.47-.78-2.02-2.59-1.24-4.06l6.1-11.47c.24-.45.35-.93.35-1.41,0-1.07-.58-2.11-1.59-2.65-1.46-.78-3.28-.22-4.06,1.24l-6.1,11.48c-.54,1.01-1.58,1.59-2.65,1.59-.48,0-.96-.11-1.41-.35-1.46-.78-2.02-2.6-1.24-4.06l6.1-11.48c.24-.45.35-.93.35-1.41,0-1.07-.57-2.11-1.59-2.64-1.46-.78-3.28-.23-4.05,1.24l-6.11,11.47c-.53,1.02-1.57,1.59-2.64,1.59-.48,0-.96-.11-1.41-.35-1.47-.77-2.02-2.59-1.24-4.05l6.1-11.48c.24-.45.35-.93.35-1.4,0-1.08-.58-2.12-1.59-2.66-1.46-.78-3.28-.22-4.06,1.24l-6.1,11.48c-.54,1.01-1.58,1.59-2.66,1.59-.47,0-.95-.11-1.4-.35-1.46-.78-2.02-2.59-1.24-4.06l11.02-20.72,7.93-3.6-2.3-6.99,15.38-28.94Z"/><polygon class="cls-35" points="1413.97 781.77 1408.33 792.37 1371.25 772.65 1376.88 762.06 1413.97 781.77"/><polygon class="cls-24" points="1330.43 681.19 1349.18 690.05 1364.82 646.96 1348.09 642.77 1330.43 681.19"/><polygon class="cls-35" points="1494.18 766.05 1480.18 795.05 1451.18 797.05 1443.18 745.05 1480.18 722.05 1494.18 766.05"/><path class="cls-4" d="M1480.07,722.49l11.69,31.81c1.34,3.64,2,7.44,2,11.23,0,5.9-1.61,11.77-4.75,16.94-10.41,17.1-33.64,20.85-48.9,7.89l-33.78-28.68-43.15-36.63"/><path class="cls-32" d="M1480.07,722.49l-62.5,33.22-47.94-46.8,22.05-55.24,36.64,9.16c20.56,5.14,37.24,20.13,44.55,40.02l7.21,19.64Z"/><path class="cls-36" d="M1589.18,632.55l-6,6,6,6v15.51c0,24.98-24.83,42.37-48.31,33.83l-37.76-13.75c-16.87-6.14-35.68,1.08-44.1,16.93l-32.1,60.36-34.65-24.31,32.89-61.85c12.17-22.89,39.34-33.32,63.7-24.45l50.28,18.3c3.91,1.42,8.05-1.47,8.05-5.64v-14.93l6-6-6-6v-23.5c0-.83.34-1.58.88-2.12.59-.59,1.42-.94,2.34-.87,1.6.11,2.78,1.56,2.78,3.16v12.83c0,.83.34,1.58.88,2.12.59.59,1.42.94,2.34.87,1.6-.11,2.78-1.56,2.78-3.16v-12.83c0-.83.34-1.58.88-2.12.59-.59,1.42-.94,2.34-.87,1.6.11,2.78,1.56,2.78,3.16v12.83c0,.83.34,1.58.88,2.12.59.59,1.42.94,2.34.87,1.6-.11,2.78-1.56,2.78-3.16v-12.83c0-.83.34-1.58.88-2.12.59-.59,1.42-.94,2.34-.87,1.6.11,2.78,1.56,2.78,3.16v12.83c0,.83.34,1.58.88,2.12.59.59,1.42.94,2.34.87,1.6-.11,2.78-1.56,2.78-3.16v-12.83c0-.83.34-1.58.88-2.12.59-.59,1.42-.94,2.34-.87,1.6.11,2.78,1.56,2.78,3.16v23.33Z"/><rect class="cls-35" x="1547.18" y="632.55" width="42" height="12"/><path class="cls-35" d="M1411.18,657.05c0,5.67,3,9,2.34,15.82-5.85,11.95-18.13,20.18-32.34,20.18-19.88,0-36-16.12-36-36,0-9.48,3.67-18.11,9.66-24.54,7.34-2.46,15.94-3.46,26.34-3.46,19.88,0,30,8.12,30,28Z"/><path class="cls-34" d="M1417.18,657.05c0,5.67-1.31,11.04-3.66,15.82-.34-1.81-1.23-3.44-2.48-4.68-1.62-1.63-3.88-2.64-6.36-2.64-4.42,0-8-3.58-8-8v-3.99c0-6.08-4.93-11.01-11.01-11.01h-18.99c-5.96,0-10.91-4.34-11.84-10.04,6.57-7.05,15.94-11.46,26.34-11.46,19.88,0,36,16.12,36,36Z"/><path class="cls-22" d="M1357.94,656.05l1.42,1.36c2.64,2.53,3.58,6.35,2.42,9.82l-2.83,8.41"/><circle class="cls-34" cx="1376.18" cy="666.05" r="3"/><path class="cls-4" d="M1370.18,690.05h5.6c5.09,0,9.68,3.06,11.63,7.76l4.33,10.39c1.58,3.79,4.4,6.93,7.99,8.91l65.22,35.94"/><rect class="cls-34" x="1286.18" y="681.05" width="88.5" height="51.5" rx="8" ry="8"/><circle class="cls-35" cx="1297.18" cy="719.05" r="3"/><line class="cls-5" x1="1336.68" y1="699.55" x2="1382.68" y2="699.55"/><line class="cls-5" x1="1332.18" y1="712.05" x2="1378.18" y2="712.05"/><line class="cls-5" x1="1332.18" y1="724.05" x2="1378.18" y2="724.05"/><line class="cls-5" x1="1340.18" y1="732.05" x2="1386.18" y2="732.05"/><polygon class="cls-35" points="1455.25 797.55 1371.49 724.05 1381.18 693.05 1399.74 717.11 1467.6 755.71 1455.25 797.55"/><line class="cls-22" x1="1343.18" y1="705.05" x2="1357.18" y2="705.05"/><path class="cls-36" d="M1235.69,717.06c-21.5-.48-40.72,9.33-53.1,24.83-1.6,2-4.32,2.83-6.73,1.95-2.42-.88-5.04-1.34-7.77-1.3-11.23.18-20.64,9.12-21.36,20.32-.8,12.6,9.13,23.07,21.53,23.17,1.57,35.06,30.48,63,65.92,63s66.55-30.1,65.99-67.02c-.53-35.26-29.23-64.18-64.49-64.97Z"/><path class="cls-35" d="M1298.18,760.05h10v-2c0-3.31-2.69-6-6-6h-2l-2,8Z"/><rect class="cls-35" x="1116.18" y="817.05" width="420" height="44" rx="12" ry="12"/><path class="cls-34" d="M1314.58,828.05h-148.78c-5.15,0-9.72-3.28-11.37-8.16l-17.56-51.92c-1.32-3.89,1.58-7.92,5.68-7.92h195.27c4.11,0,7,4.03,5.68,7.92l-17.56,51.92c-1.65,4.87-6.22,8.16-11.37,8.16Z"/><path class="cls-36" d="M1180.68,752.55h40v54c0,3.31-2.69,6-6,6h-28c-3.31,0-6-2.69-6-6v-54h0Z"/><path class="cls-35" d="M1265.18,752.05c-3.31,0-6,2.69-6,6v27.38c0,3.14-1.23,6.15-3.42,8.39l-16.35,16.71c-7.9,8.07-7.83,21,.16,28.99h0c8.05,8.05,21.1,8.05,29.15,0l25.62-25.62c3.75-3.75,5.86-8.84,5.86-14.14v-47.72h-35Z"/><line class="cls-3" x1="1290.18" y1="762.05" x2="1290.18" y2="780.05"/><line class="cls-3" x1="1279.18" y1="762.55" x2="1279.18" y2="776.05"/><line class="cls-3" x1="1268.18" y1="762.55" x2="1268.18" y2="771.05"/><path class="cls-36" d="M1747.01,716.51l48.67-67.54c10.93-15.17,24.94-27.87,41.11-37.27,4.57-2.66,9.4-5.46,14.14-8.19,1.68-.97,2.68-2.83,2.49-4.77-1.54-15.81-10.41-30.65-24.84-39.13-8.58-5.04-17.96-7.29-27.14-7.05-15.17.39-28.75-9.39-33.11-23.93-6.56-21.91-22.43-40.87-45.11-50.6-39.59-16.98-86.11.86-104.16,39.98,29.13,30.05,115.13,115.05,115.13,115.05,0,0,11.69,82.65,12.83,83.46Z"/><path class="cls-35" d="M1687.18,838.55h77.26c5.38,0,9.75-4.37,9.75-9.75h0c0-5.38-4.37-9.75-9.75-9.75h-151.25c-2.76,0-5,2.24-5,5v32c0,2.76,2.24,5,5,5h35.01c8.04,0,15.47-4.29,19.49-11.25h0c4.02-6.96,11.45-11.25,19.49-11.25Z"/><path class="cls-35" d="M1836.18,753.05h0c-23.45-5.32-42.74-21.92-51.5-44.31l-55.16-141.14c-17.54-44.88-57.72-76.97-105.37-84.14l-9.09-1.37c-3.63-.55-6.89,2.26-6.89,5.93v199.21c0,2.64,1.73,4.98,4.26,5.73,11.21,3.36,21.99,7.72,32.22,13,4.09,2.11,9.07-.2,10.06-4.7l16.08-73.03c1.15-5.23,8.61-5.23,9.77,0l14.81,67.25c.46,2.09,3.45,2.09,3.91,0l9.52-43.25c1.15-5.23,8.61-5.23,9.77,0l30.25,137.4c1.21,5.5,6.09,9.42,11.72,9.42h121.65c-5.19-22.91-23.09-40.81-46-46Z"/><path class="cls-4" d="M1745.18,452.37c7.05,2.99,13.35,7.4,18.54,12.87,3.12,3.29,8.39,3.29,11.51,0,5.19-5.48,11.49-9.89,18.54-12.87"/><path class="cls-36" d="M1664.18,432.05c-3.31,0-6-2.69-6-6v-29c0-3.31,2.69-6,6-6s6,2.69,6,6l2,5.2v19.79l-2,4.01c0,3.31-2.69,6-6,6Z"/><path class="cls-36" d="M1684.18,454.05c-3.31,0-6-2.69-6-6l-4-6v-18.35l4-4.65c0-3.31,2.69-6,6-6s6,2.69,6,6v29c0,3.31-2.69,6-6,6Z"/><line class="cls-11" x1="1674.18" y1="376.55" x2="1674.18" y2="529.55"/></svg>