<?xml version="1.0" encoding="UTF-8"?><svg id="Layer_1" xmlns="http://www.w3.org/2000/svg" viewBox="0 0 1594.27 430.75"><defs><style>.cls-1{fill:#104233;}</style></defs><path class="cls-1" d="M228.28,430.75h-71.91v-49.47C67.45,364.39,0,286.08,0,192.32,0,86.27,86.28,0,192.33,0v71.91c-66.4,0-120.42,54.02-120.42,120.41,0,53.88,35.57,99.61,84.47,114.94l.06-118.68c1.98-61.21,52.39-110.4,114.08-110.4s114.14,51.2,114.14,114.14c0,93.76-67.44,172.07-156.37,188.96v49.47ZM228.28,192.32v114.94c48.89-15.33,84.46-61.06,84.46-114.94,0-23.28-18.95-42.23-42.23-42.23s-42.23,18.95-42.23,42.23Z"/><path class="cls-1" d="M476.93,90.09h76.69v43.06c18.28-30.09,51.32-48.96,89.08-48.96,68.43,0,102.64,44.24,102.64,112.08v188.77h-76.69v-179.92c0-38.34-16.52-58.99-46.6-58.99h-4.72c-35.39,0-63.71,34.21-63.71,74.92v163.99h-76.69V90.09Z"/><path class="cls-1" d="M912.6,84.19c86.71,0,134.49,63.12,134.49,149.83,0,5.9-.59,15.34-1.18,27.72h-199.39c2.36,39.52,35.39,67.25,66.66,67.25h4.72c27.72,0,46.6-15.92,51.91-37.16h76.1c-14.15,58.4-61.35,99.11-133.31,99.11-76.1,0-140.4-57.81-140.4-153.37,0-88.49,53.68-153.37,140.4-153.37ZM972.77,202.76c-2.36-34.8-28.31-56.63-60.76-56.63h-4.72c-32.44,0-58.4,21.83-60.76,56.63h126.24Z"/><path class="cls-1" d="M1250.61,385.04c-1.76-8.26-2.94-20.05-3.53-35.98-18.29,25.95-49.55,41.88-87.31,41.88-53.09,0-96.75-34.21-96.75-86.72,0-59.58,44.83-92.02,107.96-97.33l74.33-6.49v-7.08c0-27.13-18.88-47.19-47.19-47.19h-4.72c-28.31,0-45.42,17.11-47.78,35.39h-76.69c5.9-56.04,54.27-97.33,126.83-97.33s123.88,38.34,123.88,106.18v129.78c0,29.49,1.18,51.32,2.95,64.89h-71.97ZM1245.31,256.44l-63.71,6.49c-23,1.77-43.06,14.16-43.06,35.98,0,18.29,15.34,30.08,36.57,30.08h4.72c34.21,0,65.48-27.13,65.48-64.3v-8.26Z"/><path class="cls-1" d="M1421.42,287.71c0,26.54,19.47,44.24,49.55,44.24h4.72c23.59,0,38.93-11.79,38.93-28.9,0-15.92-8.85-24.77-30.08-29.49l-38.34-9.44c-63.12-15.92-91.44-41.88-91.44-89.07,0-53.68,46.01-90.85,119.16-90.85s120.34,38.93,120.34,103.23h-76.69c-2.95-28.31-18.29-44.24-44.24-44.24h-4.72c-21.23,0-37.16,11.8-37.16,28.91,0,15.92,12.39,23.59,37.75,30.08l39.52,10.03c56.63,14.15,82.59,41.29,82.59,87.89,0,50.73-43.06,90.85-120.93,90.85s-127.41-38.93-127.41-103.23h78.45Z"/></svg>