<?xml version="1.0" encoding="UTF-8" standalone="no"?>
<!DOCTYPE svg PUBLIC "-//W3C//DTD SVG 1.1//EN" "http://www.w3.org/Graphics/SVG/1.1/DTD/svg11.dtd">
<svg width="100%" height="100%" viewBox="0 0 250 250" version="1.1" xmlns="http://www.w3.org/2000/svg" xmlns:xlink="http://www.w3.org/1999/xlink" xml:space="preserve" xmlns:serif="http://www.serif.com/" style="fill-rule:evenodd;clip-rule:evenodd;stroke-linejoin:round;stroke-miterlimit:2;">
    <path d="M118.2,98.17L81.8,123.78C81.834,123.895 81.874,124.009 81.92,124.12C81.92,124.18 81.92,124.25 81.99,124.32L82.05,124.49C82.05,124.59 82.12,124.69 82.16,124.79L82.16,124.89C82.42,125.56 82.74,126.38 83.16,127.26C83.27,127.52 83.39,127.78 83.51,128.05C83.75,128.58 84.02,129.13 84.31,129.68L84.72,130.43L84.84,130.64L85.16,131.19L85.32,131.45C85.42,131.62 85.53,131.78 85.63,131.94L85.81,132.2C85.92,132.37 86.03,132.53 86.15,132.69C86.27,132.85 86.25,132.84 86.31,132.91C86.48,133.14 86.65,133.36 86.83,133.58C87.01,133.8 87.4,134.23 87.69,134.58L87.91,134.82L88.68,135.59L88.78,135.68C89.05,135.94 89.32,136.18 89.59,136.41L89.9,136.67L90.39,137.08L91.12,137.64L91.3,137.77C91.48,137.91 91.66,138.03 91.83,138.15L92.74,138.75L93.05,138.95L93.44,139.18L123.62,120L142.62,123.51L169.46,123.51L169.46,89.32L142.68,89.32L118.2,98.17Z" style="fill:rgb(237,236,230);fill-rule:nonzero;"/>
    <path d="M129.41,144.44C118.98,146.02 109.48,150.44 101.55,154.52L99.81,155.43C95.59,157.63 91.59,159.72 87.29,160.89C84.29,161.71 78.44,162.69 73.55,159.98C70.888,158.647 69.025,156.109 68.55,153.17C68.16,149.17 74.44,145.3 78.19,143.17C79.183,144.158 80.319,144.991 81.56,145.64L88.79,140.88C84.947,138.138 81.956,134.366 80.16,130L74,135.22C74.268,136.361 74.646,137.473 75.13,138.54C70.13,141.48 62.38,146.54 63.13,153.71C63.782,158.444 66.687,162.581 70.92,164.8C74.062,166.477 77.579,167.327 81.14,167.27C83.719,167.256 86.285,166.899 88.77,166.21C93.515,164.743 98.089,162.769 102.41,160.32L104.13,159.42C111.65,155.53 120.64,151.36 130.28,149.89C144.63,147.71 154.28,151.99 158.16,156.31C158.684,156.939 159.462,157.303 160.28,157.303C161.794,157.303 163.04,156.057 163.04,154.543C163.04,153.825 162.76,153.135 162.26,152.62C157.18,147 145.92,141.93 129.41,144.44Z" style="fill:rgb(237,236,230);fill-rule:nonzero;"/>
    <rect x="173.3" y="90.95" width="11.72" height="31.3" style="fill:rgb(237,236,230);"/>
</svg>
