<svg id="Layer_1" data-name="Layer 1" xmlns="http://www.w3.org/2000/svg" viewBox="0 0 250 250"><defs><style>.cls-1{fill:#385d76;}.cls-2,.cls-4{fill:#edece6;}.cls-3{opacity:0.4;}.cls-4{opacity:0.2;}</style></defs><circle class="cls-1" cx="125" cy="128.3" r="117.62"/><path class="cls-2" d="M74.94,111.94a5,5,0,0,1-3.44-8.73,78.38,78.38,0,0,1,107,0,5,5,0,1,1-6.88,7.37,68.31,68.31,0,0,0-93.24,0A5,5,0,0,1,74.94,111.94Z"/><g class="cls-3"><path class="cls-2" d="M159.83,129.32a5,5,0,0,1-3.49-1.4,45.22,45.22,0,0,0-62.68,0,5,5,0,0,1-7-7.28,55.3,55.3,0,0,1,76.66,0,5,5,0,0,1-3.5,8.68Z"/></g><g class="cls-3"><path class="cls-2" d="M105.42,146.73a5,5,0,0,1-3.64-8.54,32.2,32.2,0,0,1,46.44,0,5,5,0,0,1-7.27,7,22.11,22.11,0,0,0-31.9,0A5,5,0,0,1,105.42,146.73Z"/></g><circle class="cls-4" cx="125" cy="162.34" r="9.97"/></svg>