<?xml version="1.0" encoding="UTF-8" standalone="no"?>
<!DOCTYPE svg PUBLIC "-//W3C//DTD SVG 1.1//EN" "http://www.w3.org/Graphics/SVG/1.1/DTD/svg11.dtd">
<svg width="100%" height="100%" viewBox="0 0 250 250" version="1.1" xmlns="http://www.w3.org/2000/svg" xmlns:xlink="http://www.w3.org/1999/xlink" xml:space="preserve" xmlns:serif="http://www.serif.com/" style="fill-rule:evenodd;clip-rule:evenodd;stroke-linejoin:round;stroke-miterlimit:2;">
    <path d="M125,81.36C125,81.36 96.55,124.47 96.55,140.19C96.55,155.797 109.393,168.64 125,168.64C140.607,168.64 153.45,155.797 153.45,140.19C153.45,124.47 125,81.36 125,81.36ZM124.81,161.49C113.392,161.446 104.016,152.048 104,140.63C103.997,140.576 103.995,140.521 103.995,140.467C103.995,139.008 105.196,137.807 106.655,137.807C108.114,137.807 109.315,139.008 109.315,140.467C109.315,140.521 109.313,140.576 109.31,140.63C109.321,149.156 116.334,156.169 124.86,156.18C124.914,156.177 124.969,156.175 125.023,156.175C126.482,156.175 127.683,157.376 127.683,158.835C127.683,160.294 126.482,161.495 125.023,161.495C124.969,161.495 124.914,161.493 124.86,161.49L124.81,161.49Z" style="fill:rgb(237,236,230);fill-rule:nonzero;"/>
    <path d="M176.36,159.5C175.865,159.498 175.381,159.359 174.96,159.1C173.724,158.328 173.341,156.677 174.11,155.44C179.757,146.308 182.749,135.781 182.749,125.045C182.749,93.342 156.662,67.255 124.959,67.255C116.362,67.255 107.872,69.173 100.11,72.87C99.721,73.081 99.285,73.192 98.842,73.192C97.383,73.192 96.182,71.991 96.182,70.532C96.182,69.463 96.826,68.494 97.81,68.08C106.304,64.02 115.6,61.913 125.015,61.913C159.625,61.913 188.105,90.393 188.105,125.003C188.105,136.746 184.826,148.259 178.64,158.24C178.154,159.029 177.287,159.508 176.36,159.5Z" style="fill:rgb(237,236,230);fill-rule:nonzero;"/>
    <path d="M167.85,136.53L171.85,135.52L176.79,155.25L196.1,148.88L197.39,152.8L173.87,160.55L167.85,136.53Z" style="fill:rgb(237,236,230);fill-rule:nonzero;"/>
    <path d="M125,188.11C90.39,188.085 61.925,159.6 61.925,124.99C61.925,113.251 65.2,101.741 71.38,91.76C71.864,90.981 72.718,90.506 73.635,90.506C75.091,90.506 76.289,91.704 76.289,93.16C76.289,93.655 76.151,94.14 75.89,94.56C70.243,103.692 67.251,114.219 67.251,124.955C67.251,156.658 93.338,182.745 125.041,182.745C133.638,182.745 142.128,180.827 149.89,177.13C150.279,176.919 150.715,176.808 151.158,176.808C152.617,176.808 153.818,178.009 153.818,179.468C153.818,180.537 153.174,181.506 152.19,181.92C143.705,185.994 134.412,188.109 125,188.11Z" style="fill:rgb(237,236,230);fill-rule:nonzero;"/>
    <path d="M82.15,113.47L78.15,114.48L73.21,94.76L53.9,101.12L52.61,97.2L76.14,89.45L82.15,113.47Z" style="fill:rgb(237,236,230);fill-rule:nonzero;"/>
</svg>
