<?xml version="1.0" encoding="UTF-8" standalone="no"?>
<!DOCTYPE svg PUBLIC "-//W3C//DTD SVG 1.1//EN" "http://www.w3.org/Graphics/SVG/1.1/DTD/svg11.dtd">
<svg width="100%" height="100%" viewBox="0 0 250 250" version="1.1" xmlns="http://www.w3.org/2000/svg" xmlns:xlink="http://www.w3.org/1999/xlink" xml:space="preserve" xmlns:serif="http://www.serif.com/" style="fill-rule:evenodd;clip-rule:evenodd;stroke-linejoin:round;stroke-miterlimit:2;">
    <path d="M114.44,76.63C91.14,79.17 70.92,95 58.78,118.05C61.169,117.682 63.583,117.498 66,117.5C75.135,117.467 84.074,120.17 91.66,125.26C92.58,106.92 101.58,83 114.44,76.63Z" style="fill:rgb(237,236,230);fill-rule:nonzero;"/>
    <path d="M125,122.25C123.78,122.25 122.58,122.25 121.38,122.39L121.38,174.22C121.383,174.295 121.385,174.37 121.385,174.446C121.385,177.244 119.083,179.546 116.285,179.546C113.487,179.546 111.185,177.244 111.185,174.446C111.185,174.37 111.187,174.295 111.19,174.22C111.193,174.157 111.195,174.093 111.195,174.03C111.195,172.044 109.561,170.41 107.575,170.41C105.589,170.41 103.955,172.044 103.955,174.03C103.955,174.093 103.957,174.157 103.96,174.22C103.96,180.984 109.526,186.55 116.29,186.55C123.054,186.55 128.62,180.984 128.62,174.22L128.62,122.39C127.42,122.3 126.22,122.25 125,122.25Z" style="fill:rgb(237,236,230);fill-rule:nonzero;"/>
    <path d="M128.62,72.89L128.62,67.51C128.62,65 127,63 125,63C123,63 121.4,65 121.39,67.45L121.39,72.86C122.551,72.442 123.776,72.229 125.01,72.23C126.241,72.251 127.461,72.474 128.62,72.89Z" style="fill:rgb(237,236,230);fill-rule:nonzero;"/>
    <path d="M128.62,77.43C127.458,77.009 126.235,76.783 125,76.76C123.765,76.757 122.539,76.974 121.38,77.4C109.63,81.55 98.66,105.4 97.68,125.26C105.039,121.383 113.095,119.004 121.38,118.26C122.58,118.17 123.78,118.13 125,118.13C126.22,118.13 127.42,118.13 128.62,118.26C136.905,119.004 144.961,121.383 152.32,125.26C151.34,105.37 140.57,81.68 128.62,77.43Z" style="fill:rgb(237,236,230);fill-rule:nonzero;"/>
    <path d="M135.56,76.63C148.41,82.99 157.42,106.92 158.38,125.26C165.955,120.178 174.879,117.475 184,117.5C186.404,117.5 188.804,117.684 191.18,118.05C179.08,95 158.86,79.17 135.56,76.63Z" style="fill:rgb(237,236,230);fill-rule:nonzero;"/>
</svg>
